<?xml version="1.0" encoding="UTF-8"?>
<svg id="Layer_1" data-name="Layer 1" xmlns="http://www.w3.org/2000/svg" viewBox="0 0 769.62 150">
  <defs>
    <style>
      .cls-1 {
        fill: #fff;
      }

      .cls-2 {
        fill: #4cc4d5;
      }
    </style>
  </defs>
  <path class="cls-2" d="M175.14,144.51c.85-1.53,1.33-3.28,1.33-5.15,0-5.87-4.76-10.63-10.63-10.63-.15,0-.29,0-.44.01L96.71,17.52c1.87-2.19,2.86-5.15,2.44-8.34-.64-4.78-4.53-8.58-9.33-9.11-6.41-.71-11.84,4.3-11.84,10.57,0,2.63.95,5.03,2.53,6.89L11.79,128.8c-.38-.04-.77-.06-1.16-.06-6.1,0-11,5.14-10.61,11.32.32,5.16,4.43,9.41,9.58,9.9,4.38.41,8.28-1.84,10.26-5.33h136.74c1.83,3.21,5.28,5.38,9.24,5.38s7.41-2.17,9.24-5.38M17.49,130.97h0c-.69-.84-.77-2.03-.19-2.96L83.08,21.48c.45-.72,1.33-1.05,2.14-.77h.01c.75.26,1.25.95,1.25,1.74v62.86c.01,1.04-.62,1.99-1.59,2.35-4.04,1.51-6.91,5.4-6.91,9.96v.04c0,.95-.51,1.83-1.33,2.29l-55.87,31.62c-1.1.62-2.49.36-3.29-.62ZM154.22,140.36H22.25c-.55,0-.99-.44-.99-.99h0,0c0-1.95,1.04-3.74,2.73-4.7l53.66-30.37c1.04-.59,2.33-.36,3.13.52,1.94,2.12,4.73,3.44,7.83,3.44s5.9-1.33,7.84-3.46c.8-.88,2.1-1.11,3.13-.52l52.54,29.75c1.91,1.08,3.08,3.1,3.08,5.3v.03s0,0,0,0c0,.55-.44.99-.99.99ZM155.99,131.32l-55.41-31.38c-.83-.47-1.34-1.34-1.34-2.29v-.02c0-4.55-2.86-8.43-6.88-9.95-.97-.37-1.6-1.31-1.6-2.35V22.45c-.01-.79.49-1.49,1.24-1.74h0c.81-.27,1.7.05,2.14.77l65.49,106.04c.79,1.27.4,2.94-.87,3.73h0c-.85.53-1.91.55-2.78.06Z"/>
  <g>
    <path class="cls-1" d="M244.05,32.39l-34.38,85.09h17.43l6.06-15.86h34.91l6,15.86h17.55l-34.01-85.09h-13.56ZM238.43,87.83l12.26-32.11,12.15,32.11h-24.41Z"/>
    <path class="cls-1" d="M379.01,98.24c3.63-6.86,5.45-15.37,5.45-25.54v-2.42h-43.45v14.53l25.81.25c-.5,2.47-1.27,4.71-2.33,6.71-2.02,3.83-4.92,6.72-8.72,8.65-3.79,1.94-8.39,2.91-13.8,2.91-5,0-9.5-1.19-13.5-3.57-3.99-2.38-7.16-5.71-9.5-9.99-2.34-4.28-3.51-9.28-3.51-15.01s1.17-10.49,3.51-14.77c2.34-4.28,5.59-7.6,9.74-9.99,4.15-2.38,8.94-3.57,14.34-3.57,4.76,0,9.12.93,13.07,2.78,3.95,1.86,7.22,4.56,9.8,8.11l11.26-11.26c-3.95-4.76-8.86-8.43-14.71-11.01-5.85-2.58-12.29-3.87-19.31-3.87-6.29,0-12.15,1.09-17.55,3.27-5.41,2.18-10.13,5.27-14.16,9.26-4.04,3.99-7.2,8.64-9.5,13.92-2.3,5.29-3.45,11-3.45,17.13s1.13,11.86,3.39,17.19c2.26,5.33,5.39,10.01,9.38,14.04,3.99,4.04,8.63,7.18,13.92,9.44,5.28,2.26,10.91,3.39,16.89,3.39,8.23,0,15.53-1.71,21.91-5.14,6.37-3.43,11.38-8.57,15.01-15.43Z"/>
    <rect class="cls-1" x="403.1" y="32.39" width="16.46" height="85.09"/>
    <path class="cls-1" d="M489.04,77.97c3.95-1.98,7-4.74,9.14-8.29,2.14-3.55,3.21-7.71,3.21-12.47s-1.07-8.67-3.21-12.23c-2.14-3.55-5.19-6.36-9.14-8.41-3.95-2.06-8.59-3.09-13.92-3.09h-30.87v84h11.38v-36.56h7.42l29.62,36.56h14.4l-30.18-36.6c4.59-.2,8.63-1.17,12.14-2.92ZM455.63,43.41h19.12c4.84,0,8.57,1.33,11.2,3.99,2.62,2.66,3.93,6.01,3.93,10.05,0,4.28-1.31,7.67-3.93,10.17-2.62,2.5-6.4,3.75-11.32,3.75h-19v-27.96Z"/>
    <path class="cls-1" d="M558.64,33.48h-8.23l-34.5,84h12.23l7.61-19h37.23l7.58,19h12.35l-34.25-84ZM539.72,88.56l14.68-36.67,14.62,36.67h-29.3Z"/>
    <rect class="cls-1" x="611.54" y="33.48" width="11.38" height="84"/>
    <polygon class="cls-1" points="660.2 33.48 648.82 33.48 648.82 117.49 656.56 117.49 660.2 117.49 701.59 117.49 701.59 107.08 660.2 107.08 660.2 33.48"/>
    <path class="cls-1" d="M769.62,94.97c0-4.44-.75-8.13-2.24-11.08-1.49-2.94-3.45-5.34-5.87-7.2-2.42-1.86-5.08-3.39-7.99-4.6s-5.83-2.32-8.78-3.33c-2.95-1.01-5.63-2.12-8.05-3.33s-4.38-2.68-5.87-4.42c-1.5-1.73-2.24-4.01-2.24-6.84,0-3.55,1.33-6.31,3.99-8.29,2.66-1.98,6.25-2.96,10.77-2.96,3.71,0,7,.73,9.87,2.18,2.86,1.45,5.55,3.63,8.05,6.54l7.75-7.75c-2.74-3.47-6.29-6.27-10.65-8.41-4.36-2.14-9.28-3.21-14.77-3.21-5,0-9.5.91-13.5,2.72-3.99,1.82-7.14,4.4-9.44,7.75-2.3,3.35-3.45,7.4-3.45,12.16,0,4.36.73,7.93,2.18,10.71,1.45,2.78,3.41,5.06,5.87,6.84,2.46,1.78,5.14,3.25,8.05,4.42,2.91,1.17,5.81,2.24,8.72,3.21,2.91.97,5.57,2.08,7.99,3.33,2.42,1.25,4.38,2.85,5.87,4.78,1.49,1.94,2.24,4.48,2.24,7.63,0,3.79-1.51,6.78-4.54,8.96s-7.04,3.27-12.04,3.27-9.36-.95-12.83-2.85c-3.47-1.89-6.54-4.7-9.2-8.41l-7.75,7.75c3.63,4.6,7.79,8.11,12.47,10.53,4.68,2.42,10.29,3.63,16.82,3.63,8.79,0,15.76-2.1,20.88-6.29,5.12-4.2,7.69-10.01,7.69-17.43Z"/>
  </g>
</svg>