<svg viewBox="0 0 400 160" xmlns="http://www.w3.org/2000/svg" preserveAspectRatio="xMidYMid meet">
  <!-- Background -->
  <rect width="400" height="160" fill="#0A0A0A"/>

  <!-- Title -->
  <text x="200" y="20" text-anchor="middle" fill="#E5E7EB" font-family="system-ui, -apple-system, sans-serif" font-size="11" font-weight="600">Delegated Budgets</text>

  <!-- Agent 1 with budget -->
  <rect x="30" y="45" width="100" height="55" rx="6" fill="#10B981" fill-opacity="0.15" stroke="#10B981" stroke-width="1.5"/>
  <text x="80" y="65" text-anchor="middle" fill="#10B981" font-family="system-ui, -apple-system, sans-serif" font-size="9" font-weight="700">Researcher</text>
  <rect x="45" y="75" width="70" height="18" rx="3" fill="#10B981" fill-opacity="0.2"/>
  <text x="80" y="88" text-anchor="middle" fill="#6EE7B7" font-family="system-ui, -apple-system, sans-serif" font-size="8">$20 budget</text>

  <!-- Agent 2 with budget -->
  <rect x="150" y="45" width="100" height="55" rx="6" fill="#3B82F6" fill-opacity="0.15" stroke="#3B82F6" stroke-width="1.5"/>
  <text x="200" y="65" text-anchor="middle" fill="#3B82F6" font-family="system-ui, -apple-system, sans-serif" font-size="9" font-weight="700">Analyst</text>
  <rect x="165" y="75" width="70" height="18" rx="3" fill="#3B82F6" fill-opacity="0.2"/>
  <text x="200" y="88" text-anchor="middle" fill="#93C5FD" font-family="system-ui, -apple-system, sans-serif" font-size="8">$10 budget</text>

  <!-- Agent 3 with budget -->
  <rect x="270" y="45" width="100" height="55" rx="6" fill="#8B5CF6" fill-opacity="0.15" stroke="#8B5CF6" stroke-width="1.5"/>
  <text x="320" y="65" text-anchor="middle" fill="#8B5CF6" font-family="system-ui, -apple-system, sans-serif" font-size="9" font-weight="700">Writer</text>
  <rect x="285" y="75" width="70" height="18" rx="3" fill="#8B5CF6" fill-opacity="0.2"/>
  <text x="320" y="88" text-anchor="middle" fill="#A78BFA" font-family="system-ui, -apple-system, sans-serif" font-size="8">$5 budget</text>

  <!-- Arrows down to blockchain -->
  <line x1="80" y1="100" x2="80" y2="120" stroke="#10B981" stroke-width="1"/>
  <line x1="200" y1="100" x2="200" y2="120" stroke="#3B82F6" stroke-width="1"/>
  <line x1="320" y1="100" x2="320" y2="120" stroke="#8B5CF6" stroke-width="1"/>

  <!-- Blockchain bar -->
  <rect x="30" y="125" width="340" height="20" rx="4" fill="#0EA5E9" fill-opacity="0.1" stroke="#0EA5E9" stroke-width="1"/>
  <text x="200" y="139" text-anchor="middle" fill="#0EA5E9" font-family="system-ui, -apple-system, sans-serif" font-size="8">AGIRAILS • Base L2</text>

  <!-- Arrow heads -->
  <polygon points="80,120 76,113 84,113" fill="#10B981"/>
  <polygon points="200,120 196,113 204,113" fill="#3B82F6"/>
  <polygon points="320,120 316,113 324,113" fill="#8B5CF6"/>
</svg>
